# xmcd
#
# Track frame offsets: 
#        150
#        30713
#        54586
#        88264
#        110870
#        123855
#        147436
#        162329
#        197685
#        215833
#        232616
#        259939
#        299992
#        313447
#
# Disc length: 4374 seconds
#
# Revision: 0
# Processed by: cddbd v1.5PL3 Copyright (c) Steve Scherf et al.
# Submitted via: ExactAudioCopy v0.95a5
#
DISCID=e311140e
DTITLE=Curtis Mayfield - Back To The World
DYEAR=1988
DGENRE=Soul
TTITLE0=Back To The World
TTITLE1=Future Shock
TTITLE2=Right On For The Darkness
TTITLE3=Future Song (Love A Good Woman, Love A Good Man)
TTITLE4=If I Were Only A Child Again
TTITLE5=Can't Say Nothin'
TTITLE6=Keep On Trippin'
TTITLE7=(Don't Worry) If There's Hell Below We're All Gonna Go
TTITLE8=The Other Side Of Town
TTITLE9=The Walking Of You
TTITLE10=We The People Who Are Darker Than Blue
TTITLE11=Move On Up
TTITLE12=Miss Black America
TTITLE13=Wild And Free
EXTD=
EXTT0=
EXTT1=
EXTT2=
EXTT3=
EXTT4=
EXTT5=
EXTT6=
EXTT7=
EXTT8=
EXTT9=
EXTT10=
EXTT11=
EXTT12=
EXTT13=
PLAYORDER=
